<?xml version="1.0" encoding="utf-8"?>
<!-- Generator: Adobe Illustrator 25.4.1, SVG Export Plug-In . SVG Version: 6.00 Build 0)  -->
<svg version="1.1" id="Layer_1" xmlns="http://www.w3.org/2000/svg" xmlns:xlink="http://www.w3.org/1999/xlink" x="0px" y="0px"
	 viewBox="0 0 24 24" style="enable-background:new 0 0 24 24;" xml:space="preserve">
<style type="text/css">
	.st0{fill:#FFFFFF;}
</style>
<path class="st0" d="M5,2.8c-1.2,0-2.2,1-2.2,2.2V19c0,1.2,1,2.2,2.2,2.2H19c1.2,0,2.2-1,2.2-2.2V5c0-1.2-1-2.2-2.2-2.2H5z M5,3.7
	H19c0.7,0,1.3,0.6,1.3,1.3V19c0,0.7-0.6,1.3-1.3,1.3H5c-0.7,0-1.3-0.6-1.3-1.3V5C3.7,4.2,4.2,3.7,5,3.7z M7.2,5.9
	C6.7,5.9,6.3,6,5.9,6.3S5.4,6.9,5.4,7.4c0,0.8,0.7,1.5,1.6,1.5c0,0,0,0,0,0c0,0,0.1,0,0.1,0c1,0,1.8-0.7,1.8-1.5c0,0,0,0,0,0
	C8.9,6.5,8.1,5.9,7.2,5.9z M7.2,6.7C7.8,6.7,8,7,8,7.4C8,7.8,7.8,8,7.2,8C6.6,8,6.3,7.7,6.3,7.4c0-0.2,0.1-0.3,0.2-0.4
	C6.6,6.8,6.9,6.7,7.2,6.7z M5.8,9.4c-0.2,0-0.4,0.2-0.4,0.4v8.3c0,0.2,0.2,0.4,0.4,0.4h2.6c0.2,0,0.4-0.2,0.4-0.4v-2.6V9.8
	c0-0.2-0.2-0.4-0.4-0.4H5.8z M9.8,9.4c-0.2,0-0.4,0.2-0.4,0.4v8.3c0,0.2,0.2,0.4,0.4,0.4h2.6c0.2,0,0.4-0.2,0.4-0.4v-4.4
	c0-0.4,0.1-0.7,0.3-1c0.2-0.2,0.4-0.4,0.8-0.4c0.4,0,0.7,0.2,0.8,0.4s0.3,0.6,0.3,0.9v4.4c0,0.2,0.2,0.4,0.4,0.4h2.6
	c0.2,0,0.4-0.2,0.4-0.4v-4.7c0-1.3-0.4-2.3-1-3c-0.7-0.7-1.6-1-2.6-1c-0.9,0-1.6,0.3-2.1,0.6V9.8c0-0.2-0.2-0.4-0.4-0.4H9.8z
	 M6.3,10.2H8v5.3v2.1H6.3V10.2z M10.2,10.2H12v0.7c0,0.2,0.2,0.4,0.4,0.4c0.1,0,0.3-0.1,0.4-0.2c0,0,0.7-1,2.2-1
	c0.8,0,1.4,0.3,1.9,0.8c0.5,0.5,0.8,1.3,0.8,2.4v4.3H16v-4c0-0.5-0.1-1-0.4-1.5c-0.3-0.4-0.9-0.7-1.5-0.7c-0.7,0-1.2,0.3-1.5,0.7
	s-0.4,1-0.4,1.5v4h-1.8V10.2z"/>
</svg>
